<svg version="1.0" xmlns="http://www.w3.org/2000/svg" width="148" height="148" viewBox="0 0 111 111"><path d="M25.1 4C20.4 7.4 17 12.4 17 15.7c0 1.3-.9 3.2-1.9 4.2-2.6 2.6-5.1 7.5-5.1 10 0 1.1-.6 2.6-1.4 3.3-2.6 2.6-4.7 8-4.8 12 0 2.2-.6 5.2-1.4 6.6-1.5 3-.3 6.1 2.7 6.9 1.4.4 1.9 1.6 2.1 6.2.3 5.3.5 5.6 3.1 5.9 2.1.3 2.7.9 2.8 2.8.1 1.3.2 2.7.3 3.1.1.5.6 4.2 1 8.3.5 4.1 1 8.3 1.2 9.3.2 1 .6 4.6.9 8 .4 3.4 1.1 6.8 1.7 7.5 1.5 1.7 21.2 1.7 22.6-.1.6-.7 1.4-4.6 1.8-8.7.3-4.1.8-7.8 1-8.1.1-.3.6-3.5.9-7.2.4-3.6.8-7.4 1-8.4.2-1 .4-2.8.4-4 .1-1.6.8-2.2 2.9-2.5 2.5-.3 2.7-.6 3-5.8.2-4.6.7-5.7 2.5-6.5 1.8-.8 2.2-1.9 2.4-5.5.1-2.5.3-6.8.4-9.5.4-8.6-3.7-14.1-18.4-24.9-4.5-3.3-6.5-7.7-6.1-13.4C33-.1 31.2-.4 25.1 4zM29 8.2c0 4.8 3.9 10.4 10.7 15.3 11.5 8.3 14.8 13.4 14.1 21.2l-.4 3.8-7.8.1c-22.3.4-37-10.1-30.9-22l1.9-3.8 2.5 3.7C22 30.8 35.4 38 37.3 36.1c1.3-1.3 1.5-1.2-6.6-5-11.8-5.6-14.3-15-6.1-22.6 3.3-3.1 4.4-3.1 4.4-.3zm-16.9 31c4 7.6 16.4 12.3 33.9 13 5.9.2 7.5.6 7.5 1.8 0 1-1.3 1.6-4.2 1.8-4.5.3-5.8 2-2.3 2.9 1.6.4 2 1.4 2 4.9V68H10v-9h15.5c13.1 0 15.5-.2 15.5-1.5s-2.5-1.5-16.2-1.6c-9-.1-17.1 0-18.1.1-3.3.3-1.5-3.4 1.8-4 3.5-.6 4-2.4.8-2.8-1.9-.3-2.3-1-2.3-3.6 0-3.3 2-8.6 3.2-8.6.4 0 1.3 1 1.9 2.2zM25 73c-.6 1.1-1.7 2-2.4 2s-2.1-.9-3.1-2c-1.8-2-1.7-2 2.4-2 3.9 0 4.1.1 3.1 2zm14.4 0c-2.1 2.2-4.8 1.9-5.8-.6-.4-1.1.4-1.4 3.7-1.4h4.1l-2 2zM32 80.5l-2.4 2.6-2.5-2.5-2.5-2.5 2.4-2.6 2.4-2.6 2.5 2.5 2.5 2.5-2.4 2.6zm10-2.3c0 1.6-.3 1.9-1.1 1.1-.6-.6-.8-1.6-.5-2.2 1.1-1.7 1.6-1.3 1.6 1.1zm-17.2 5.1 2.2 2.3-2.3 2.2c-2.1 2-2.5 2.1-4.5.6-2.6-1.8-2.8-3.1-.5-5.6 2.1-2.3 2.5-2.3 5.1.5zm14.4-.6c2.3 2.1 2.3 3.6-.2 5.8-2 1.8-2.1 1.8-4.5-.5L32 85.6l2.2-2.3c2.6-2.7 2.6-2.8 5-.6zm-7.3 7.4c2.2 2.4 1.8 4.4-1 6-1.5.7-2.4.5-4.1-1.1l-2.2-2 2.4-2.5c1.3-1.4 2.5-2.5 2.6-2.5.2 0 1.2.9 2.3 2.1zm-4.9 10c0 .7-2.9.9-5.7.3-1.6-.3-2.1-.9-1.6-2.2 1.1-2.9 2.6-3.2 5-.9 1.2 1.2 2.3 2.5 2.3 2.8zm12.3-2.7c.8 2.1-.6 3.3-4 3.3-3.9-.1-4-.2-1.1-3.2 2.2-2.3 4.3-2.4 5.1-.1zm-.3 8.1c0 1.8.4 1.7-9.5 1.9-7.4.2-9.4-.4-9.5-2.7 0-.4 4.3-.7 9.5-.7 7.8 0 9.5.3 9.5 1.5zM58.5 82.9c-3.8 1-8.8 3.6-10.3 5.3-.6.8-1.5 3.2-2 5.5-1.9 8.6 4.2 14.7 16 15.9 9.3.9 15.8-.2 15.8-2.7 0-2.2 1.3-2.5 2.9-.5 3.1 3.7 20.4 4.6 25.4 1.3 1.6-1 2.4-2.6 2.6-5.3.1-2.2.4-5.3.5-7.1.8-8.2-6.9-14-17.5-13-3.3.3-7.5 1.4-9.4 2.6-2.7 1.6-3.5 1.7-3.5.6 0-.7-.5-1.7-1.1-2.1-1.7-1-16-1.4-19.4-.5zM76 85.5c.6.4.9 1.9.7 3.3-.3 2.5-.7 2.7-5.9 2.9-6.5.2-9.8 1.6-9.8 4.2 0 3.1 2.9 4.6 9 4.5h5.6l.2 3.3c.2 2.5-.1 3.3-1.5 3.4-12.9 1.1-20.4-.4-24.2-4.7-1.9-2.3-2.2-3.6-1.8-7 .6-5.5 3.5-8.4 10.6-10.4 2.9-.8 15.6-.4 17.1.5zm26 .5c2.9 1.6 5 5.1 5 8.5v3.1l-8.5-.1c-8.8-.1-10.2.8-5.4 3.3 2.2 1.2 6.3 1 11.6-.4 1.8-.5 2.2-.2 2 1.6-.3 4.7-9.3 7-19 4.8-8.2-1.8-11.6-8.4-8-15.5 1.6-3 3-4.2 6.9-5.5 5-1.8 11.9-1.7 15.4.2zM76 96.1c0 1.3-1.1 1.8-4.2 2.1-2.4.3-5.4.1-6.7-.4-1.9-.7-2.1-1.1-1-2.4 1.8-2.2 11.9-1.7 11.9.7z"/><path d="M92.3 90.7C89.5 91.8 91 94 94.6 94c2.9 0 3.5-.3 3-1.6-.3-.9-.6-1.8-.6-2 0-.5-3.2-.4-4.7.3z"/></svg>