<?xml version="1.0" standalone="no"?>
<!DOCTYPE svg PUBLIC "-//W3C//DTD SVG 20010904//EN"
 "http://www.w3.org/TR/2001/REC-SVG-20010904/DTD/svg10.dtd">
<svg version="1.0" xmlns="http://www.w3.org/2000/svg"
 width="111.000000pt" height="111.000000pt" viewBox="0 0 111.000000 111.000000"
 preserveAspectRatio="xMidYMid meet">
<metadata>
Created by potrace 1.14, written by Peter Selinger 2001-2017
</metadata>
<g transform="translate(0.000000,111.000000) scale(0.100000,-0.100000)"
fill="#000000" stroke="none">
<path d="M251 1070 c-47 -34 -81 -84 -81 -117 0 -13 -9 -32 -19 -42 -26 -26
-51 -75 -51 -100 0 -11 -6 -26 -14 -33 -26 -26 -47 -80 -48 -120 0 -22 -6 -52
-14 -66 -15 -30 -3 -61 27 -69 14 -4 19 -16 21 -62 3 -53 5 -56 31 -59 21 -3
27 -9 28 -28 1 -13 2 -27 3 -31 1 -5 6 -42 10 -83 5 -41 10 -83 12 -93 2 -10
6 -46 9 -80 4 -34 11 -68 17 -75 15 -17 212 -17 226 1 6 7 14 46 18 87 3 41 8
78 10 81 1 3 6 35 9 72 4 36 8 74 10 84 2 10 4 28 4 40 1 16 8 22 29 25 25 3
27 6 30 58 2 46 7 57 25 65 18 8 22 19 24 55 1 25 3 68 4 95 4 86 -37 141
-184 249 -45 33 -65 77 -61 134 4 53 -14 56 -75 12z m39 -42 c0 -48 39 -104
107 -153 115 -83 148 -134 141 -212 l-4 -38 -78 -1 c-223 -4 -370 101 -309
220 l19 38 25 -37 c29 -43 163 -115 182 -96 13 13 15 12 -66 50 -118 56 -143
150 -61 226 33 31 44 31 44 3z m-169 -310 c40 -76 164 -123 339 -130 59 -2 75
-6 75 -18 0 -10 -13 -16 -42 -18 -45 -3 -58 -20 -23 -29 16 -4 20 -14 20 -49
l0 -44 -195 0 -195 0 0 45 0 45 155 0 c131 0 155 2 155 15 0 13 -25 15 -162
16 -90 1 -171 0 -181 -1 -33 -3 -15 34 18 40 35 6 40 24 8 28 -19 3 -23 10
-23 36 0 33 20 86 32 86 4 0 13 -10 19 -22z m129 -338 c-6 -11 -17 -20 -24
-20 -7 0 -21 9 -31 20 -18 20 -17 20 24 20 39 0 41 -1 31 -20z m144 0 c-21
-22 -48 -19 -58 6 -4 11 4 14 37 14 l41 0 -20 -20z m-74 -75 l-24 -26 -25 25
-25 25 24 26 24 26 25 -25 25 -25 -24 -26z m100 23 c0 -16 -3 -19 -11 -11 -6
6 -8 16 -5 22 11 17 16 13 16 -11z m-172 -51 l22 -23 -23 -22 c-21 -20 -25
-21 -45 -6 -26 18 -28 31 -5 56 21 23 25 23 51 -5z m144 6 c23 -21 23 -36 -2
-58 -20 -18 -21 -18 -45 5 l-25 24 22 23 c26 27 26 28 50 6z m-73 -74 c22 -24
18 -44 -10 -60 -15 -7 -24 -5 -41 11 l-22 20 24 25 c13 14 25 25 26 25 2 0 12
-9 23 -21z m-49 -100 c0 -7 -29 -9 -57 -3 -16 3 -21 9 -16 22 11 29 26 32 50
9 12 -12 23 -25 23 -28z m123 27 c8 -21 -6 -33 -40 -33 -39 1 -40 2 -11 32 22
23 43 24 51 1z m-3 -81 c0 -18 4 -17 -95 -19 -74 -2 -94 4 -95 27 0 4 43 7 95
7 78 0 95 -3 95 -15z"/>
<path d="M585 281 c-38 -10 -88 -36 -103 -53 -6 -8 -15 -32 -20 -55 -19 -86
42 -147 160 -159 93 -9 158 2 158 27 0 22 13 25 29 5 31 -37 204 -46 254 -13
16 10 24 26 26 53 1 22 4 53 5 71 8 82 -69 140 -175 130 -33 -3 -75 -14 -94
-26 -27 -16 -35 -17 -35 -6 0 7 -5 17 -11 21 -17 10 -160 14 -194 5z m175 -26
c6 -4 9 -19 7 -33 -3 -25 -7 -27 -59 -29 -65 -2 -98 -16 -98 -42 0 -31 29 -46
90 -45 l56 0 2 -33 c2 -25 -1 -33 -15 -34 -129 -11 -204 4 -242 47 -19 23 -22
36 -18 70 6 55 35 84 106 104 29 8 156 4 171 -5z m260 -5 c29 -16 50 -51 50
-85 l0 -31 -85 1 c-88 1 -102 -8 -54 -33 22 -12 63 -10 116 4 18 5 22 2 20
-16 -3 -47 -93 -70 -190 -48 -82 18 -116 84 -80 155 16 30 30 42 69 55 50 18
119 17 154 -2z m-260 -101 c0 -13 -11 -18 -42 -21 -24 -3 -54 -1 -67 4 -19 7
-21 11 -10 24 18 22 119 17 119 -7z"/>
<path d="M923 203 c-28 -11 -13 -33 23 -33 29 0 35 3 30 16 -3 9 -6 18 -6 20
0 5 -32 4 -47 -3z"/>
</g>
</svg>
